<?xml version="1.0" standalone="no"?>
<!DOCTYPE svg PUBLIC "-//W3C//DTD SVG 20010904//EN"
 "http://www.w3.org/TR/2001/REC-SVG-20010904/DTD/svg10.dtd">
<svg version="1.0" xmlns="http://www.w3.org/2000/svg"
 width="1701.000000pt" height="1701.000000pt" viewBox="0 0 1701.000000 1701.000000"
 preserveAspectRatio="xMidYMid meet">
<metadata>
Created by potrace 1.11, written by Peter Selinger 2001-2013
</metadata>
<g transform="translate(0.000000,1701.000000) scale(0.100000,-0.100000)"
fill="#000000" stroke="none">
<path d="M0 8505 l0 -8505 8505 0 8505 0 0 8505 0 8505 -8505 0 -8505 0 0
-8505z m8860 7135 c1018 -54 1948 -299 2851 -751 1243 -622 2310 -1633 3001
-2844 526 -923 834 -1925 920 -2995 19 -244 16 -913 -6 -1155 -126 -1408 -630
-2685 -1495 -3795 -335 -430 -785 -880 -1221 -1221 -1030 -806 -2243 -1310
-3535 -1468 -306 -38 -461 -46 -875 -46 -500 0 -733 18 -1169 91 -1307 216
-2500 780 -3521 1664 -185 160 -529 503 -691 690 -936 1080 -1527 2395 -1703
3790 -64 507 -72 1093 -20 1615 200 2041 1282 3903 2969 5111 1301 931 2896
1397 4495 1314z"/>
<path d="M8135 15399 c-1698 -91 -3297 -804 -4503 -2009 -1129 -1128 -1830
-2594 -1992 -4167 -99 -964 -3 -1910 288 -2823 444 -1394 1354 -2645 2547
-3500 898 -645 1902 -1055 2980 -1219 408 -62 606 -76 1060 -75 535 1 858 31
1360 130 1032 203 2060 679 2900 1343 318 251 688 604 936 891 978 1133 1541
2463 1676 3955 24 271 24 887 0 1155 -33 363 -96 751 -172 1060 -301 1226
-930 2343 -1820 3235 -969 970 -2187 1627 -3510 1894 -562 113 -1192 160
-1750 130z m956 -2919 c715 -56 1371 -280 1949 -666 790 -528 1385 -1398 1603
-2344 76 -327 102 -601 94 -990 -12 -640 -135 -1157 -411 -1725 -378 -779
-931 -1373 -1681 -1805 -823 -474 -1778 -643 -2760 -489 -636 100 -1297 384
-1830 788 -846 640 -1428 1630 -1584 2696 -35 235 -44 409 -38 725 7 417 52
740 153 1105 194 702 550 1332 1041 1845 l120 125 307 -299 306 -299 -129
-129 c-197 -196 -343 -380 -473 -598 -302 -505 -481 -1097 -506 -1677 -25
-571 65 -1059 284 -1538 320 -698 816 -1206 1509 -1545 544 -267 1100 -380
1713 -350 510 25 922 131 1367 350 454 224 801 501 1107 883 307 384 540 894
633 1382 65 346 73 812 19 1155 -85 540 -319 1064 -657 1468 -489 585 -1206
961 -1979 1038 l-68 6 0 -1446 0 -1446 -390 0 -390 0 0 1895 0 1895 278 0
c153 0 339 -5 413 -10z"/>
</g>
</svg>
