<?xml version="1.0" encoding="UTF-8"?>
<svg xmlns="http://www.w3.org/2000/svg" xmlns:xlink="http://www.w3.org/1999/xlink" width="24pt" height="24pt" viewBox="0 0 24 24" version="1.1">
<g id="surface1">
<!-- <rect x="0" y="0" width="24" height="24" style="fill:rgb(0%,0%,0%);fill-opacity:1;stroke:none;"/> -->
<path style="fill:none;stroke-width:24.0024;stroke-linecap:butt;stroke-linejoin:miter;stroke:rgb(100%,100%,100%);stroke-opacity:1;stroke-miterlimit:8;" d="M 148.117676 850.5 C 148.117676 462.625488 462.625488 148.117676 850.5 148.117676 C 1238.374512 148.117676 1552.882324 462.625488 1552.882324 850.5 C 1552.882324 1238.374512 1238.374512 1552.882324 850.5 1552.882324 C 462.625488 1552.882324 148.117676 1238.374512 148.117676 850.5 Z M 148.117676 850.5 " transform="matrix(0.0141093,0,0,0.0141093,0,0)"/>
<path style="fill:none;stroke-width:73.3405;stroke-linecap:butt;stroke-linejoin:miter;stroke:rgb(100%,100%,100%);stroke-opacity:1;stroke-miterlimit:8;" d="M 823.921875 481.45166 C 1025.749512 466.501465 1201.552734 617.941406 1216.50293 819.492188 C 1231.453125 1021.042969 1080.013184 1196.569336 877.908691 1211.519531 C 676.081055 1226.469727 500.554688 1075.029785 485.604492 873.479004 C 477.575684 765.505371 517.996582 659.192871 595.792969 583.888184 " transform="matrix(0.0141093,0,0,0.0141093,0,0)"/>
<path style="fill:none;stroke-width:73.3405;stroke-linecap:butt;stroke-linejoin:miter;stroke:rgb(100%,100%,100%);stroke-opacity:1;stroke-miterlimit:8;" d="M 855.483398 445.460449 L 859.63623 821.430176 " transform="matrix(0.0141093,0,0,0.0141093,0,0)"/>
</g>
</svg>
