<svg width="1701" height="1701" xmlns="http://www.w3.org/2000/svg" xmlns:xlink="http://www.w3.org/1999/xlink" overflow="hidden"><defs><clipPath id="clip0"><rect x="0" y="0" width="1701" height="1701"/></clipPath></defs><g clip-path="url(#clip0)"><rect x="0" y="0" width="1701" height="1701"/><path d="M148 850.5C148 462.52 462.52 148 850.5 148 1238.48 148 1553 462.52 1553 850.5 1553 1238.48 1238.48 1553 850.5 1553 462.52 1553 148 1238.48 148 850.5Z" stroke="#FFFFFF" stroke-width="24.0024" stroke-miterlimit="8" fill="none" fill-rule="evenodd"/><path d="M823.969 481.496C1025.83 466.588 1201.57 617.921 1216.5 819.506 1231.43 1021.09 1079.89 1196.59 878.03 1211.5 676.169 1226.41 500.426 1075.08 485.498 873.493 477.491 765.37 517.898 659.265 595.829 583.78" stroke="#FFFFFF" stroke-width="73.3405" stroke-miterlimit="8" fill="none" fill-rule="evenodd"/><path d="M855.5 445.5 859.585 821.469" stroke="#FFFFFF" stroke-width="73.3405" stroke-miterlimit="8" fill="none" fill-rule="evenodd"/></g></svg>