<?xml version="1.0" standalone="no"?>
<!DOCTYPE svg PUBLIC "-//W3C//DTD SVG 20010904//EN"
 "http://www.w3.org/TR/2001/REC-SVG-20010904/DTD/svg10.dtd">
<svg version="1.0" xmlns="http://www.w3.org/2000/svg"
 width="700.000000pt" height="700.000000pt" viewBox="0 0 700.000000 700.000000"
 preserveAspectRatio="xMidYMid meet">
<metadata>
Created by potrace 1.14, written by Peter Selinger 2001-2017
</metadata>
<g transform="translate(0.000000,700.000000) scale(0.100000,-0.100000)"
fill="#000000" stroke="none">
<path d="M3357 6763 c-1 -1 -40 -4 -87 -8 -47 -3 -101 -8 -120 -10 -243 -33
-367 -58 -550 -112 -439 -129 -871 -365 -1215 -663 -81 -70 -313 -308 -381
-390 -273 -330 -482 -720 -607 -1130 -19 -63 -38 -128 -42 -145 -4 -16 -8 -37
-10 -45 -11 -46 -35 -160 -40 -190 -3 -19 -7 -46 -10 -60 -22 -123 -40 -369
-39 -525 2 -200 11 -308 40 -495 21 -128 21 -128 34 -185 6 -27 13 -58 15 -67
11 -55 60 -221 91 -310 189 -545 541 -1057 974 -1418 14 -12 35 -29 46 -39
195 -168 516 -361 794 -479 146 -61 387 -142 500 -166 14 -3 45 -10 70 -16 67
-14 208 -38 265 -45 28 -4 61 -8 75 -10 110 -18 419 -23 595 -11 417 28 843
145 1228 337 124 62 299 165 382 224 240 172 378 293 582 511 129 138 293 363
400 549 176 304 325 703 379 1015 2 14 7 36 9 50 17 81 33 209 41 325 13 176
7 507 -11 615 -2 14 -7 50 -11 80 -13 116 -48 284 -89 430 -313 1116 -1203
1991 -2320 2280 -129 33 -197 47 -340 69 -58 9 -87 13 -240 27 -65 6 -404 12
-408 7z"/>
</g>
</svg>
